<?xml version="1.0" encoding="utf-8"?>
<?xml-stylesheet type="text/xsl" href="rss1.xsl"?>
<rss version="2.0" xmlns:atom="http://www.w3.org/2005/Atom" xmlns:content="http://purl.org/rss/1.0/modules/content/" xmlns:dc="http://purl.org/dc/elements/1.1/" xmlns:media="http://search.yahoo.com/mrss/">
<channel>
 <title>Getty</title>
 <link>http://www.gettyimg.com/</link>
 <atom:link href="http://www.gettyimg.com/" rel="self" type="application/rss+xml" />

 
                <item>
                <title><![CDATA[【Cinema Center】SERIES - Miraculous: Tales of Ladybug and Cat Noir: Webisodes - Season 1-2 - 1080p Disney+ WEB-DL AAC2.0 H.264-LAZY]]></title>
                <link><![CDATA[https://sharemania.us/threads/miraculous-tales-of-ladybug-and-cat-noir-webisodes-season-1-2-1080p-disney-web-dl-aac2-0-h-264-lazy.239089/]]></link>
                <description><![CDATA[<article>
<blockquote class="messageText SelectQuoteContainer ugc baseHtml">
Miraculous: Tales of Ladybug &amp; Cat Noir: Webisodes:<img src="https://cdn1.edgedatg.com/aws/v2/dnow/MiraculousTalesofLadybugCatNoir/theme/2425136/98011d5ee6e56bf8824cca4d911dc351/1440x360-Q95_98011d5ee6e56bf8824cca4d911dc351.jpg" class="bbCodeImage LbImage" alt="[​IMG]" data-url="https://cdn1.edgedatg.com/aws/v2/dnow/MiraculousTalesofLadybugCatNoir/theme/2425136/98011d5ee6e56bf8824cca4d911dc351/1440x360-Q95_98011d5ee6e56bf8824cca4d911dc351.jpg" style=""><br>
<br>
<div class="bbCodeBlock bbCodeQuote">
<aside>
<blockquote class="quoteContainer"><div class="quote"><i><b>Synopsis:</b></i><br>
Marinette tells her diary about the adventurous life she lives with her friends!</div><div class="quoteExpand">Click to expand...</div></blockquote>
</aside>
</div>
<div class="ToggleTriggerAnchor bbCodeSpoilerContainer">
<button type="button" class="button bbCodeSpoilerButton ToggleTrigger Tooltip JsOnly" data-target="> .SpoilerTarget"><span>Spoiler: <span class="SpoilerTitle">MediaInfo</span></span></button>
<div class="SpoilerTarget bbCodeSpoilerText">General<br>
Unique ID : 319459310877106688813020550344902923016 (0xF055A0128E8535222159F351E0875308)<br>
Complete name : Miraculous.Tales.of.Ladybug.and.Cat.Noir.Webisodes.S01E01.Marinette.and.Adrien.1080p.DSNP.WEB-DL.AAC2.0.H.264-LAZY.mkv<br>
Format : Matroska<br>
Format version : Version 4<br>
File size : 127 MiB<br>
Duration : 2 min 1 s<br>
Overall bit rate mode : Variable<br>
Overall bit rate : 8 753 kb/s<br>
Encoded date : UTC 2024-03-03 00:38:36<br>
Writing application : mkvmerge v82.0 ('I'm The President') 64-bit<br>
Writing library : libebml v1.4.5 + libmatroska v1.7.1<br>
<br>
Video<br>
ID : 1<br>
Format : AVC<br>
Format/Info : Advanced Video Codec<br>
Format profile : High@L4<br>
Format settings : CABAC / 4 Ref Frames<br>
Format settings, CABAC : Yes<br>
Format settings, Reference frames : 4 frames<br>
Codec ID : V_MPEG4/ISO/AVC<br>
Duration : 2 min 1 s<br>
Bit rate mode : Variable<br>
Bit rate : 8 499 kb/s<br>
Maximum bit rate : 12.7 Mb/s<br>
Width : 1 920 pixels<br>
Height : 1 080 pixels<br>
Display aspect ratio : 16:9<br>
Frame rate mode : Constant<br>
Frame rate : 25.000 FPS<br>
Color space : YUV<br>
Chroma subsampling : 4:2:0<br>
Bit depth : 8 bits<br>
Scan type : Progressive<br>
Bits/(Pixel*Frame) : 0.164<br>
Stream size : 123 MiB (97%)<br>
Default : Yes<br>
Forced : No<br>
Color range : Limited<br>
Color primaries : BT.709<br>
Transfer characteristics : BT.709<br>
Matrix coefficients : BT.709<br>
<br>
Audio #1<br>
ID : 2<br>
Format : AAC LC<br>
Format/Info : Advanced Audio Codec Low Complexity<br>
Codec ID : A_AAC-2<br>
Duration : 2 min 1 s<br>
Bit rate : 125 kb/s<br>
Channel(s) : 2 channels<br>
Channel layout : L R<br>
Sampling rate : 48.0 kHz<br>
Frame rate : 46.875 FPS (1024 SPF)<br>
Compression mode : Lossy<br>
Stream size : 1.82 MiB (1%)<br>
Language : English<br>
Default : Yes<br>
Forced : No<br>
<br>
Audio #2<br>
ID : 3<br>
Format : AAC LC<br>
Format/Info : Advanced Audio Codec Low Complexity<br>
Codec ID : A_AAC-2<br>
Duration : 2 min 1 s<br>
Bit rate : 125 kb/s<br>
Channel(s) : 2 channels<br>
Channel layout : L R<br>
Sampling rate : 48.0 kHz<br>
Frame rate : 46.875 FPS (1024 SPF)<br>
Compression mode : Lossy<br>
Stream size : 1.82 MiB (1%)<br>
Language : French<br>
Default : No<br>
Forced : No<br>
<br>
Text #1<br>
ID : 4<br>
Format : UTF-8<br>
Codec ID : S_TEXT/UTF8<br>
Codec ID/Info : UTF-8 Plain Text<br>
Duration : 1 min 48 s<br>
Bit rate : 181 b/s<br>
Count of elements : 44<br>
Stream size : 2.40 KiB (0%)<br>
Title : SDH<br>
Language : English<br>
Default : No<br>
Forced : No<br>
<br>
Text #2<br>
ID : 5<br>
Format : UTF-8<br>
Codec ID : S_TEXT/UTF8<br>
Codec ID/Info : UTF-8 Plain Text<br>
Duration : 1 min 50 s<br>
Bit rate : 165 b/s<br>
Count of elements : 42<br>
Stream size : 2.23 KiB (0%)<br>
Language : Hungarian<br>
Default : No<br>
Forced : No<br>
<br>
Text #3<br>
ID : 6<br>
Format : UTF-8<br>
Codec ID : S_TEXT/UTF8<br>
Codec ID/Info : UTF-8 Plain Text<br>
Duration : 1 min 57 s<br>
Bit rate : 157 b/s<br>
Count of elements : 42<br>
Stream size : 2.25 KiB (0%)<br>
Language : Polish<br>
Default : No<br>
Forced : No<br>
<br>
Text #4<br>
ID : 7<br>
Format : UTF-8<br>
Codec ID : S_TEXT/UTF8<br>
Codec ID/Info : UTF-8 Plain Text<br>
Duration : 1 min 56 s<br>
Bit rate : 174 b/s<br>
Count of elements : 42<br>
Stream size : 2.49 KiB (0%)<br>
Language : Romanian<br>
Default : No<br>
Forced : No<br>
<br>
Text #5<br>
ID : 8<br>
Format : UTF-8<br>
Codec ID : S_TEXT/UTF8<br>
Codec ID/Info : UTF-8 Plain Text<br>
Duration : 2 min 1 s<br>
Bit rate : 145 b/s<br>
Count of elements : 36<br>
Stream size : 2.15 KiB (0%)<br>
Language : Turkish<br>
Default : No<br>
Forced : No<br>
<br>
Text #6<br>
ID : 9<br>
Format : UTF-8<br>
Codec ID : S_TEXT/UTF8<br>
Codec ID/Info : UTF-8 Plain Text<br>
Duration : 1 min 56 s<br>
Bit rate : 121 b/s<br>
Count of elements : 54<br>
Stream size : 1.73 KiB (0%)<br>
Title : Traditional, Hong Kong<br>
Language : Chinese<br>
Default : No<br>
Forced : No<br>
<br>
Text #7<br>
ID : 10<br>
Format : UTF-8<br>
Codec ID : S_TEXT/UTF8<br>
Codec ID/Info : UTF-8 Plain Text<br>
Duration : 1 min 52 s<br>
Bit rate : 123 b/s<br>
Count of elements : 54<br>
Stream size : 1.70 KiB (0%)<br>
Title : Traditional<br>
Language : Chinese<br>
Default : No<br>
Forced : No<br>
<br>
Menu<br>
00:02:01.000 : en:Credits</div>
</div><br>
Screenshots:<br>
<img src="https://ptpimg.me/v06f37.jpg" class="bbCodeImage LbImage" alt="[​IMG]" data-url="https://ptpimg.me/v06f37.jpg" style=""> <br>
<br>
<div class="bbCodeBlock bbCodeVfcHH HiddenContent">
<div class="attribution type">Hidden Content:</div>
<blockquote>You must either reply or click 'Like' to see the hidden information contained here.</blockquote>
</div>
<div class="messageTextEndMarker">&nbsp;</div>
</blockquote>
</article>]]></description>
                <author><![CDATA[LazyRips]]></author>
                </item>

                
                <item>
                <title><![CDATA[【Albums (lossless)】FLAC - Sidewalks and Skeletons - White Light [2015] (Hi-Res) 16bit/44.1kHz - Tidal]]></title>
                <link><![CDATA[https://sharemania.us/threads/sidewalks-and-skeletons-white-light-2015-hi-res-16bit-44-1khz-tidal.239088/]]></link>
                <description><![CDATA[<article>
<blockquote class="messageText SelectQuoteContainer ugc baseHtml">
<div style="text-align: center"><img src="https://i.imgur.com/0vFhhSh.jpg" class="bbCodeImage LbImage" alt="[​IMG]" data-url="https://i.imgur.com/0vFhhSh.jpg" style=""> <br>
<b><span style="text-decoration: underline"><i><a href="https://tidal.com/browse/album/43963219" target="_blank" class="externalLink" rel="nofollow">TIDAL</a></i><br>
<img src="https://i.imgur.com/xdETQ5Ot.png" class="bbCodeImage LbImage" alt="[​IMG]" data-url="https://i.imgur.com/xdETQ5Ot.png" style=""></span></b>​</div><b><span style="font-family: 'Times New Roman'">Tracklist: <i>16bit/44.1kHz</i></span></b><br>
<ol>
<li><span style="font-family: 'Times New Roman'"><b>Fall </b><i>(1:25)</i></span></li>
<li><span style="font-family: 'Times New Roman'"><b>Unearth </b><i>(3:37)</i></span></li>
<li><span style="font-family: 'Times New Roman'"><b>Eternal </b><i>(3:42)</i></span></li>
<li><span style="font-family: 'Times New Roman'"><b>Goth </b><i>(3:27)</i></span></li>
<li><span style="font-family: 'Times New Roman'"><b>White Light </b><i>(4:24)</i></span></li>
<li><span style="font-family: 'Times New Roman'"><b>Above </b><i>(3:34)</i></span></li>
<li><span style="font-family: 'Times New Roman'"><b>Pure</b> <i>(5:00)</i></span></li>
<li><span style="font-family: 'Times New Roman'"><b>XXX </b><i>(1:20)</i></span></li>
<li><span style="font-family: 'Times New Roman'"><b>Disappear </b><i>(2:50)</i></span></li>
<li><span style="font-family: 'Times New Roman'"><b>Blood </b><i>(2:14)</i></span></li>
<li><span style="font-family: 'Times New Roman'"><b>Sleep Paralysis </b><i>(3:26)</i></span></li>
<li><span style="font-family: 'Times New Roman'"><b>Rapture </b><i>(2:38)</i></span></li>
<li><span style="font-family: 'Times New Roman'"><b>Body </b><i>(3:28)</i></span></li>
<li><span style="font-family: 'Times New Roman'"><b>Underwater Sun </b><i>(3:09)</i></span></li>
</ol><span style="font-family: 'Times New Roman'"><b>
<div class="bbCodeBlock bbCodeVfcHH HiddenContent">
<div class="attribution type">Hidden Content:</div>
<blockquote>You must reply before you can see the hidden data contained here.</blockquote>
</div></b></span>
<div class="messageTextEndMarker">&nbsp;</div>
</blockquote>
</article>]]></description>
                <author><![CDATA[jase]]></author>
                </item>

                
                <item>
                <title><![CDATA[【Cinema Center】SERIES - Rabbids Invasion - Season 2 - 1080p Netflix WEB-DL AAC2.0 x264-LAZY]]></title>
                <link><![CDATA[https://sharemania.us/threads/rabbids-invasion-season-2-1080p-netflix-web-dl-aac2-0-x264-lazy.239087/]]></link>
                <description><![CDATA[<article>
<blockquote class="messageText SelectQuoteContainer ugc baseHtml">
Rabbids Invasion:<img src="https://artworks.thetvdb.com/banners/graphical/271708-g4.jpg" class="bbCodeImage LbImage" alt="[​IMG]" data-url="https://artworks.thetvdb.com/banners/graphical/271708-g4.jpg" style=""> <br>
<br>
<div class="bbCodeBlock bbCodeQuote">
<aside>
<blockquote class="quoteContainer"><div class="quote"><i><b>Synopsis:</b></i><br>
A mysterious race of rabbit-like creatures have come from another planet and they wreak havoc wherever they go in the human world.</div><div class="quoteExpand">Click to expand...</div></blockquote>
</aside>
</div>
<div class="ToggleTriggerAnchor bbCodeSpoilerContainer">
<button type="button" class="button bbCodeSpoilerButton ToggleTrigger Tooltip JsOnly" data-target="> .SpoilerTarget"><span>Spoiler: <span class="SpoilerTitle">MediaInfo</span></span></button>
<div class="SpoilerTarget bbCodeSpoilerText">General<br>
Unique ID : 279734995774211205901748775118096825512 (0xD273001FD0A6A2270AE41353FEE3FCA8)<br>
Complete name : Rabbids.Invasion.S02E01.Diete.Cretine.-.Lapin.Vert.-.Dans.La.Peau.DUn.Lapin.1080p.NF.WEB-DL.AAC2.0.x264-LAZY.mkv<br>
Format : Matroska<br>
Format version : Version 4<br>
File size : 332 MiB<br>
Duration : 19 min 53 s<br>
Overall bit rate mode : Variable<br>
Overall bit rate : 2 335 kb/s<br>
Encoded date : UTC 2024-03-02 17:35:33<br>
Writing application : mkvmerge v82.0 ('I'm The President') 64-bit<br>
Writing library : libebml v1.4.5 + libmatroska v1.7.1<br>
<br>
Video<br>
ID : 1<br>
Format : AVC<br>
Format/Info : Advanced Video Codec<br>
Format profile : Main@L4<br>
Format settings : CABAC / 3 Ref Frames<br>
Format settings, CABAC : Yes<br>
Format settings, Reference frames : 3 frames<br>
Codec ID : V_MPEG4/ISO/AVC<br>
Duration : 19 min 53 s<br>
Bit rate mode : Variable<br>
Bit rate : 2 205 kb/s<br>
Nominal bit rate : 1 983 kb/s<br>
Maximum bit rate : 2 913 kb/s<br>
Width : 1 920 pixels<br>
Height : 1 080 pixels<br>
Display aspect ratio : 16:9<br>
Frame rate mode : Constant<br>
Frame rate : 25.000 FPS<br>
Color space : YUV<br>
Chroma subsampling : 4:2:0<br>
Bit depth : 8 bits<br>
Scan type : Progressive<br>
Bits/(Pixel*Frame) : 0.043<br>
Stream size : 314 MiB (94%)<br>
Writing library : x264 core 148 r2727 7d026e8<br>
Encoding settings : cabac=1 / ref=3 / deblock=1:0:0 / analyse=0x1:0x111 / me=umh / subme=10 / psy=1 / psy_rd=1.00:0.00 / mixed_ref=1 / me_range=24 / chroma_me=1 / trellis=2 / 8x8dct=0 / cqm=0 / deadzone=21,11 / fast_pskip=1 / chroma_qp_offset=-2 / threads=6 / lookahead_threads=1 / sliced_threads=0 / nr=0 / decimate=1 / interlaced=0 / bluray_compat=0 / stitchable=1 / constrained_intra=0 / bframes=2 / b_pyramid=0 / b_adapt=2 / b_bias=0 / direct=3 / weightb=1 / open_gop=0 / weightp=2 / keyint=250 / keyint_min=126 / scenecut=0 / intra_refresh=0 / rc_lookahead=50 / rc=2pass / mbtree=1 / bitrate=1983 / ratetol=1.0 / qcomp=0.50 / qpmin=6 / qpmax=51 / qpstep=4 / cplxblur=20.0 / qblur=0.5 / vbv_maxrate=2913 / vbv_bufsize=4855 / nal_hrd=vbr / filler=0 / ip_ratio=1.40 / aq=1:1.00<br>
Default : Yes<br>
Forced : No<br>
<br>
Audio<br>
ID : 2<br>
Format : AAC LC SBR<br>
Format/Info : Advanced Audio Codec Low Complexity with Spectral Band Replication<br>
Commercial name : HE-AAC<br>
Format settings : Explicit<br>
Codec ID : A_AAC-2<br>
Duration : 19 min 53 s<br>
Bit rate : 128 kb/s<br>
Channel(s) : 2 channels<br>
Channel layout : L R<br>
Sampling rate : 48.0 kHz<br>
Frame rate : 23.438 FPS (2048 SPF)<br>
Compression mode : Lossy<br>
Stream size : 18.2 MiB (5%)<br>
Language : French<br>
Default : Yes<br>
Forced : No<br>
<br>
Text<br>
ID : 3<br>
Format : UTF-8<br>
Codec ID : S_TEXT/UTF8<br>
Codec ID/Info : UTF-8 Plain Text<br>
Duration : 19 min 23 s<br>
Bit rate : 30 b/s<br>
Count of elements : 277<br>
Stream size : 4.38 KiB (0%)<br>
Title : SDH<br>
Language : French<br>
Default : No<br>
Forced : No<br>
<br>
Menu<br>
00:00:00.000 : en<img src="styles/default/xenforo/smilies/grimace-48.png" class="mceSmilie" alt=":p" title="Stick Out Tongue    :p">art 01<br>
00:19:47.450 : en:Credits</div>
</div><br>
Screenshots:<br>
<img src="https://ptpimg.me/33ek3u.jpg" class="bbCodeImage LbImage" alt="[​IMG]" data-url="https://ptpimg.me/33ek3u.jpg" style=""> <br>
<div class="bbCodeBlock bbCodeVfcHH HiddenContent">
<div class="attribution type">Hidden Content:</div>
<blockquote>You must either reply or click 'Like' to see the hidden information contained here.</blockquote>
</div>
<div class="messageTextEndMarker">&nbsp;</div>
</blockquote>
</article>]]></description>
                <author><![CDATA[LazyRips]]></author>
                </item>

                </channel></rss>